<?xml version="1.0" standalone="no"?>
<!DOCTYPE svg PUBLIC "-//W3C//DTD SVG 20010904//EN"
 "http://www.w3.org/TR/2001/REC-SVG-20010904/DTD/svg10.dtd">
<svg version="1.0" xmlns="http://www.w3.org/2000/svg"
 width="454.000000pt" height="585.000000pt" viewBox="0 0 454.000000 585.000000"
 preserveAspectRatio="xMidYMid meet">
<metadata>
Created by potrace 1.16, written by Peter Selinger 2001-2019
</metadata>
<g transform="translate(0.000000,585.000000) scale(0.100000,-0.100000)"
fill="#000000" stroke="none">
<path d="M163 5843 c-13 -2 -23 -9 -23 -14 0 -6 -4 -7 -10 -4 -5 3 -10 2 -10
-3 0 -6 11 -9 24 -8 13 0 22 4 19 9 -12 19 16 4 42 -23 24 -25 30 -28 38 -15
4 8 15 15 23 15 9 0 22 7 31 16 9 8 22 13 31 9 8 -3 21 0 28 6 25 21 41 2 51
-59 l9 -61 -42 -16 c-23 -9 -47 -22 -53 -29 -6 -7 -22 -11 -36 -8 -21 3 -24 1
-19 -12 4 -11 12 -15 23 -10 9 4 45 9 81 12 42 3 69 10 76 20 6 8 18 13 26 9
10 -3 28 8 49 29 l33 34 -22 16 c-25 18 -30 62 -7 71 22 8 30 -4 16 -21 -16
-19 -5 -24 57 -24 29 -1 62 -4 72 -7 11 -4 20 -2 20 3 0 8 36 6 69 -4 10 -3
11 -7 1 -19 -9 -11 -17 -12 -31 -4 -22 11 -59 3 -59 -12 0 -6 6 -7 17 0 10 5
26 5 40 0 23 -8 53 10 53 32 0 6 10 9 23 8 12 -2 32 3 45 9 15 9 33 10 55 5
17 -5 67 -7 111 -5 67 3 79 6 83 23 7 26 63 27 70 0 3 -11 13 -19 26 -19 12 0
33 0 47 -2 14 -1 59 -1 102 0 65 2 77 5 81 21 3 12 14 19 30 19 25 0 52 -22
40 -33 -6 -7 7 -8 164 -11 81 -1 83 -1 88 25 5 24 9 26 38 19 22 -4 32 -12 31
-23 -2 -18 -7 -18 163 -21 76 -1 83 1 92 22 14 29 61 31 68 2 5 -19 16 -22 73
-22 160 0 178 2 183 22 7 28 51 26 70 -3 15 -23 19 -23 127 -21 85 3 115 7
124 18 12 17 66 39 74 31 3 -3 0 -5 -7 -5 -8 0 -7 -7 3 -23 13 -19 23 -22 63
-21 26 1 81 3 121 3 54 1 72 4 72 15 0 15 35 27 56 19 8 -3 14 -11 14 -19 0
-14 5 -15 75 -17 114 -3 175 3 175 17 0 30 72 26 82 -5 2 -7 25 -12 58 -12
137 0 191 4 185 12 -6 11 23 28 43 25 6 -1 17 -2 22 -3 6 0 10 -8 10 -16 0
-16 24 -19 165 -15 64 1 84 6 98 21 10 10 22 19 27 19 20 0 40 -13 40 -26 0
-15 18 -17 149 -14 57 1 80 6 99 21 14 10 34 19 46 20 l21 0 -21 9 c-35 14
-417 11 -426 -3 -6 -9 -8 -9 -8 0 0 10 -414 12 -1882 11 -1036 0 -1893 -3
-1905 -5z"/>
<path d="M6 5673 c-3 -3 -5 -182 -5 -397 -1 -215 3 -386 7 -380 4 6 15 13 24
17 15 5 18 20 19 79 1 40 1 76 0 81 -7 42 -2 90 11 104 15 16 22 56 19 107 -2
32 -12 11 -17 -35 -6 -51 -10 -59 -31 -59 -11 0 -13 5 -7 18 8 19 9 92 2 135
-4 20 -1 27 10 27 12 0 14 12 9 70 -5 64 -4 70 13 70 10 0 22 5 26 12 4 7 3 8
-4 4 -14 -8 -62 3 -62 15 0 5 6 8 13 7 8 -2 13 12 15 39 2 30 10 47 25 58 19
13 17 20 -5 16 -4 0 -18 3 -32 8 -13 6 -26 7 -30 4z"/>
<path d="M725 5641 c-3 -3 -26 -5 -51 -6 -46 -1 -73 -20 -54 -39 6 -6 15 -3
25 10 9 11 14 13 13 5 -4 -19 95 -16 135 4 15 8 25 9 22 4 -10 -15 183 -14
235 1 17 5 30 5 30 0 0 -4 11 -7 25 -6 14 0 25 4 25 8 0 4 25 7 55 7 30 0 55
-4 55 -8 0 -8 65 -5 87 3 7 3 15 1 18 -4 3 -5 15 -6 29 0 20 7 62 7 136 -1 14
-1 -11 -6 -55 -9 -44 -3 87 -6 290 -7 204 0 345 3 315 7 -47 5 -38 7 60 11
149 5 232 -3 110 -11 -83 -6 769 -11 1632 -11 338 1 439 -2 445 -12 4 -6 6
-1129 5 -2494 l-4 -2482 22 6 c13 4 26 0 31 -8 7 -11 9 -9 9 8 0 12 -6 23 -12
25 -10 4 -13 42 -11 154 1 82 1 176 0 209 0 33 0 173 1 310 1 138 1 264 1 280
-1 17 -1 275 0 575 1 502 0 1053 0 1210 -1 36 -1 281 -1 545 0 264 1 487 1
495 -1 213 0 1073 1 1095 0 17 3 43 6 58 4 21 1 32 -13 42 -21 16 -67 20 -58
5 4 -6 -35 -10 -112 -9 -73 1 -103 4 -78 8 34 5 36 7 15 11 -42 9 -224 -1
-209 -11 10 -6 4 -9 -18 -9 -26 0 -31 3 -26 17 5 13 2 15 -11 10 -10 -4 -21
-7 -24 -7 -4 0 0 -5 8 -10 11 -7 2 -9 -30 -9 -41 1 -42 2 -15 9 20 5 24 8 10
9 -11 1 -31 4 -44 8 -20 5 -23 3 -18 -10 6 -15 -2 -17 -58 -17 -37 0 -65 4
-65 10 0 6 -12 10 -27 9 l-28 -1 25 -8 c18 -6 9 -8 -35 -8 -40 0 -52 2 -35 7
14 4 20 10 14 13 -14 9 -55 -2 -48 -13 9 -15 -6 -10 -23 7 -11 11 -26 14 -46
10 -16 -3 -66 -6 -111 -7 -54 0 -74 -3 -61 -9 18 -8 17 -9 -7 -9 -22 -1 -26 3
-21 16 5 13 2 15 -18 10 -13 -4 -33 -7 -44 -8 -11 -1 -4 -5 15 -9 33 -7 32 -7
-15 -9 -31 0 -45 3 -37 8 11 7 10 10 -3 15 -24 9 -28 8 -21 -9 5 -13 -13 -15
-127 -13 l-132 2 110 6 110 6 -85 3 c-47 2 -105 5 -130 6 -25 1 -70 -1 -100
-4 l-55 -6 75 -6 c45 -3 2 -5 -110 -5 -102 -1 -156 2 -120 5 153 14 -20 18
-770 21 -437 1 -846 3 -908 4 -62 1 -115 0 -117 -3z"/>
<path d="M207 5299 c-4 -28 -1 -49 9 -64 8 -12 11 -25 7 -28 -11 -12 -41 -8
-46 6 -3 6 -6 2 -6 -11 -1 -13 3 -21 9 -17 11 7 37 -53 30 -70 -2 -5 -5 -417
-6 -915 -1 -498 -3 -907 -4 -910 -1 -3 -1 -9 0 -15 2 -13 2 -778 -1 -926 -1
-64 0 -120 2 -125 3 -5 4 -27 3 -49 -2 -46 -4 -442 -3 -453 1 -4 0 -11 -1 -17
-1 -5 -1 -62 0 -125 1 -63 2 -133 1 -155 -1 -22 -1 -47 -1 -55 0 -8 0 -28 -1
-45 0 -37 0 -29 1 -148 1 -54 -1 -101 -3 -104 -3 -3 -3 -15 1 -27 10 -27 9
-48 -3 -65 -5 -9 -5 -16 2 -18 6 -2 7 -19 4 -41 -4 -20 -4 -63 -1 -94 3 -33 2
-59 -4 -61 -6 -2 -5 -16 2 -36 8 -22 8 -39 2 -51 -12 -23 -13 -43 -1 -36 5 3
8 -12 7 -33 0 -22 -4 -37 -7 -35 -11 7 -6 -100 6 -108 6 -5 6 -8 -2 -8 -7 0
-13 -7 -13 -16 0 -8 4 -12 10 -9 5 3 8 0 5 -7 -3 -7 -6 -58 -8 -114 -2 -95 -1
-102 20 -118 15 -11 39 -16 71 -15 26 1 262 0 524 -1 422 -2 480 0 500 14 12
9 31 16 42 16 11 0 17 2 14 5 -3 3 -258 6 -566 5 -325 0 -563 3 -566 9 -8 12
-9 3418 -2 3430 4 5 2 12 -4 16 -6 4 -8 10 -5 15 3 5 8 370 11 812 3 442 7
811 9 821 2 11 -3 17 -15 17 -13 0 -19 -11 -23 -41z"/>
<path d="M1 4570 c0 -173 3 -310 7 -304 4 6 16 14 27 18 16 6 17 9 5 16 -8 6
-10 10 -5 10 6 0 11 44 13 106 4 100 3 106 -17 111 -26 7 -29 57 -5 71 11 6
17 29 21 73 3 35 5 66 6 69 3 19 -17 100 -24 100 -6 0 -14 10 -19 23 -5 14 -9
-95 -9 -293z"/>
<path d="M2 3953 c-1 -294 -1 -302 18 -300 20 1 24 22 23 137 -1 87 -3 100
-18 100 -24 0 -20 66 4 73 18 4 19 14 16 118 -3 137 -2 129 -19 129 -8 0 -17
10 -19 23 -2 12 -5 -114 -5 -280z"/>
<path d="M4498 769 c-2 -75 -1 -136 2 -134 3 2 12 -1 20 -6 13 -8 13 -10 1
-18 -15 -10 -23 -90 -10 -106 12 -15 7 -55 -7 -55 -13 0 -24 -89 -12 -96 14
-9 8 -44 -6 -44 -8 0 -17 -4 -20 -9 -3 -5 0 -9 7 -8 30 1 47 -4 47 -13 0 -6
-5 -9 -12 -8 -8 2 -15 -15 -18 -44 -4 -30 -13 -54 -25 -63 -20 -16 -19 -16 2
-10 12 3 31 1 42 -4 15 -9 20 -7 25 12 3 12 6 185 6 384 0 353 0 362 -19 360
-19 -1 -20 -11 -23 -138z"/>
<path d="M2205 339 c5 -7 -26 -9 -101 -5 -60 2 -97 2 -81 0 15 -3 27 -9 27
-13 0 -4 -24 -3 -54 2 -60 11 -205 -9 -297 -41 -50 -17 -52 -19 -53 -55 -1
-36 7 -47 19 -28 3 6 15 8 26 6 16 -3 19 0 15 13 -5 13 -2 13 10 -3 l16 -20
-4 20 c-4 16 1 20 20 22 13 0 27 5 31 10 12 16 41 11 41 -8 0 -21 16 -26 24
-6 3 9 9 7 19 -5 17 -21 27 -23 27 -5 0 8 -10 18 -22 24 -19 8 -20 10 -4 16
11 4 15 3 11 -4 -4 -6 1 -9 11 -7 15 2 18 -2 16 -24 -4 -39 4 -35 27 15 11 23
20 37 21 30 0 -6 14 -14 30 -18 30 -7 38 -19 20 -30 -19 -12 0 -25 21 -15 15
9 19 7 19 -6 0 -12 5 -14 18 -8 9 4 36 6 60 5 31 -1 42 2 42 13 0 7 7 17 16
20 21 8 24 8 24 -4 0 -5 -7 -10 -15 -10 -8 0 -15 -7 -15 -15 0 -7 -8 -19 -17
-24 -17 -10 -17 -10 0 -11 9 0 17 4 17 9 0 6 9 8 20 6 13 -2 20 2 20 11 0 8 4
13 9 9 5 -3 11 3 14 12 3 15 6 14 14 -7 9 -21 8 -26 -11 -32 -17 -5 -17 -6 -3
-7 27 -1 67 28 60 45 -3 8 -1 14 5 14 5 0 12 -9 15 -21 3 -12 10 -18 16 -14 7
4 14 -6 17 -24 4 -17 10 -28 15 -25 5 3 7 10 3 15 -3 5 -2 9 3 8 20 -3 25 2
13 15 -8 11 -9 20 -1 33 9 16 10 16 11 -4 0 -16 8 -25 27 -29 24 -6 25 -8 8
-14 -17 -6 -16 -7 6 -12 23 -4 26 -2 21 16 -3 12 -10 28 -16 36 -9 12 -8 13 4
3 8 -6 24 -13 35 -15 11 -1 24 -7 28 -13 5 -5 6 4 2 20 -3 17 -13 36 -22 43
-14 10 -14 12 -2 13 8 1 17 1 22 0 4 0 7 6 7 14 0 9 -6 12 -15 9 -16 -6 -21
11 -6 20 14 9 34 -22 28 -43 -3 -13 0 -18 12 -16 9 2 20 4 24 4 5 1 5 7 1 14
-6 9 -5 9 7 0 8 -7 25 -10 37 -6 13 3 22 2 21 -3 -3 -20 14 -54 28 -54 12 0
13 3 4 14 -9 11 -8 18 4 30 20 19 26 20 19 3 -2 -7 0 -24 5 -38 l10 -24 2 25
c1 14 1 31 0 39 -2 7 3 10 9 6 6 -4 9 -13 6 -21 -8 -20 19 -18 35 3 12 15 12
16 -4 10 -11 -4 -16 -3 -12 4 4 6 13 8 20 5 7 -2 18 1 24 7 10 9 12 9 9 -3 -2
-8 -7 -18 -13 -22 -6 -5 -5 -8 2 -8 7 0 10 -6 7 -13 -7 -19 35 -15 47 4 8 11
9 9 5 -6 -5 -17 -1 -20 25 -21 34 -1 56 -23 36 -36 -7 -4 -7 -8 -2 -8 6 0 16
4 24 9 12 8 12 12 -2 26 -10 9 -17 30 -17 46 0 23 -6 32 -26 40 -15 5 -29 7
-32 5 -2 -3 7 -8 22 -12 14 -3 26 -11 26 -16 0 -6 -7 -7 -17 -3 -39 17 -177
55 -202 56 l-26 1 25 8 c17 6 8 7 -30 4 -41 -3 -50 -2 -35 6 14 7 -1 8 -55 5
-52 -3 -66 -2 -45 4 23 7 13 9 -43 8 -39 -1 -72 1 -72 6 0 4 -41 7 -91 7 -62
0 -88 -3 -84 -11z"/>
<path d="M3211 220 l-45 -5 37 -13 c20 -7 37 -18 37 -23 0 -12 270 -6 290 6 8
5 11 4 7 -2 -9 -14 258 -18 293 -3 3 1 23 2 45 3 26 1 41 7 43 17 2 13 -38 15
-320 14 -178 -1 -327 1 -333 5 -5 4 -30 4 -54 1z"/>
<path d="M4135 163 c-11 -2 -27 -7 -35 -10 -8 -4 -22 -7 -30 -7 -8 -1 -31 -18
-51 -38 l-37 -36 23 -10 c24 -11 35 -7 35 12 0 6 -5 4 -10 -4 -8 -13 -10 -13
-10 1 0 20 26 33 36 18 4 -6 13 -4 25 7 17 16 19 16 19 1 0 -10 5 -17 11 -17
6 0 9 -7 6 -15 -4 -8 -1 -17 5 -21 7 -4 4 -10 -7 -17 -11 -6 -20 -6 -24 1 -10
17 -61 9 -61 -9 0 -13 11 -16 55 -17 l54 0 -4 53 -5 54 36 11 c19 7 38 18 41
26 3 8 9 11 14 8 5 -3 9 0 9 5 0 11 -55 13 -95 4z"/>
<path d="M2044 118 c3 -16 1 -28 -4 -28 -4 0 -6 -10 -3 -22 4 -19 3 -20 -6 -8
-6 8 -11 11 -11 5 0 -13 -20 17 -20 30 0 6 5 3 10 -5 8 -13 10 -12 10 3 0 9
-7 17 -15 17 -9 0 -15 -9 -15 -25 0 -18 -5 -25 -20 -25 -11 0 -20 5 -20 11 0
5 -4 8 -9 5 -5 -4 -11 0 -14 6 -3 11 -9 11 -26 0 -12 -7 -21 -8 -21 -2 0 5 5
10 11 10 5 0 7 5 3 12 -5 8 -10 7 -18 -4 -6 -8 -14 -15 -19 -16 -4 0 -13 -2
-20 -5 -20 -6 62 -29 89 -24 13 2 24 0 24 -4 0 -5 12 -9 28 -10 15 0 22 -3 15
-5 -14 -6 -179 21 -248 41 -27 8 -54 14 -59 14 -5 -1 -12 5 -16 11 -6 10 -13
9 -29 -2 -14 -10 -37 -13 -67 -11 -32 3 -50 0 -56 -9 -7 -9 -11 -10 -14 -1 -6
15 -73 6 -93 -12 -8 -9 -11 -20 -6 -32 5 -12 9 -14 12 -5 3 6 14 12 25 12 15
0 18 -5 13 -20 -6 -20 -2 -20 813 -20 815 0 820 0 815 20 -6 22 15 28 34 9 15
-15 22 2 12 30 -8 21 -14 23 -59 19 -28 -3 -53 -1 -56 4 -4 5 -16 7 -27 4 -12
-3 -27 -1 -33 5 -16 13 -58 -26 -50 -46 3 -9 -2 -13 -14 -12 -10 1 -16 5 -13
11 4 5 -1 7 -10 3 -11 -4 -15 0 -14 14 1 22 8 24 25 7 15 -15 26 -4 18 18 -5
12 -12 14 -29 9 -71 -23 -196 -54 -221 -54 -36 -1 -30 8 10 13 16 2 36 6 44 9
8 3 27 8 43 11 15 4 27 10 27 15 0 4 -12 13 -27 20 -27 11 -27 11 -8 -5 20
-16 20 -16 -2 -11 -13 3 -23 2 -23 -2 0 -13 -29 -8 -34 6 -3 8 -1 11 4 8 6 -3
10 -1 10 4 0 6 -7 11 -15 11 -8 0 -15 -5 -15 -11 0 -5 -5 -7 -11 -3 -8 4 -9
-1 -5 -17 3 -13 3 -18 0 -11 -3 6 -12 12 -19 12 -7 0 -16 6 -19 13 -3 6 -4 -1
0 -17 5 -27 4 -28 -12 -15 -10 8 -15 9 -11 3 4 -7 -1 -14 -12 -17 -14 -3 -18
1 -18 20 0 13 -3 26 -5 29 -10 9 -38 -9 -38 -25 0 -12 2 -13 9 -3 7 11 10 10
15 -3 9 -24 8 -24 -14 -20 -11 2 -20 -2 -20 -8 0 -7 -5 -4 -11 6 -6 9 -14 15
-20 12 -5 -4 -9 -1 -9 4 0 6 5 11 12 11 9 0 9 3 1 11 -9 9 -18 8 -37 -5 -16
-10 -26 -12 -26 -5 0 6 9 13 21 16 16 5 18 8 7 15 -9 7 -7 8 9 5 12 -3 24 1
27 8 4 10 -2 11 -24 5 -16 -5 -34 -11 -40 -15 -6 -4 -19 -1 -28 6 -12 10 -11
6 3 -10 14 -17 16 -23 5 -19 -18 6 -38 -12 -35 -32 1 -8 0 -10 -2 -4 -2 7 -13
14 -25 17 -16 5 -19 2 -15 -15 4 -13 2 -17 -4 -11 -5 5 -11 19 -14 30 -5 27
21 38 34 15 7 -11 11 -12 11 -4 0 7 6 10 13 7 6 -4 1 3 -13 14 -16 13 -20 21
-11 21 8 0 12 3 8 6 -3 3 -12 2 -19 -2 -7 -5 -26 -8 -43 -7 l-30 2 30 -7 30
-7 -44 -17 -43 -17 6 25 c4 15 3 23 -3 20 -5 -3 -12 0 -14 6 -3 8 -6 6 -6 -5
-1 -10 -4 -16 -8 -14 -5 3 -8 -12 -7 -34 0 -21 -3 -39 -8 -39 -5 0 -7 14 -4
30 5 34 6 34 -29 18 -19 -9 -28 -9 -37 0 -15 15 -38 16 -38 2 0 -5 6 -10 14
-10 8 0 16 -7 20 -15 6 -17 -9 -21 -19 -4 -4 6 -13 8 -19 6 -9 -4 -11 2 -8 18
2 13 -1 31 -7 42 -10 15 -11 14 -7 -9z"/>
<path d="M3760 40 c0 -8 -9 -11 -25 -8 -14 3 -28 1 -31 -4 -4 -5 -27 -9 -53
-8 -103 5 -211 0 -211 -10 0 -7 91 -10 277 -8 237 3 278 5 281 18 2 12 -10 15
-65 15 -38 0 -71 -4 -75 -9 -4 -6 -13 -4 -22 3 -9 7 -23 10 -32 7 -9 -4 -23
-1 -30 5 -11 9 -14 8 -14 -1z"/>
</g>
</svg>
